<svg width="39" height="30" viewBox="0 0 39 30" fill="none" xmlns="http://www.w3.org/2000/svg">
<path d="M24.3477 27.6239V27.5101H17.1877V27.6239L17.1889 27.6801C17.1889 28.3103 16.9386 28.9147 16.4929 29.3604C16.0473 29.806 15.4429 30.0564 14.8127 30.0564C14.1824 30.0564 13.578 29.806 13.1324 29.3604C12.6868 28.9147 12.4364 28.3103 12.4364 27.6801L12.4377 27.6214V27.5101H11.6214C11.2734 27.5101 10.9359 27.3911 10.6648 27.1728C10.3938 26.9545 10.2056 26.6501 10.1314 26.3101L10.1302 26.3001L5.35891 3.70885L1.28266 3.0301C0.894438 2.95168 0.551903 2.72542 0.327422 2.39912C0.10294 2.07282 0.0140945 1.67203 0.079654 1.28143C0.145214 0.890831 0.360044 0.541014 0.678758 0.305883C0.997473 0.070752 1.39511 -0.0312765 1.78766 0.0213527L1.78016 0.0201027L6.88141 0.870103C7.50266 0.976353 7.99016 1.44635 8.12016 2.04885L8.12141 2.05885L8.98641 6.13885L23.8677 7.37885C23.7758 7.8677 23.7289 8.36395 23.7277 8.86135V8.86635C23.7277 9.36885 23.7714 9.86135 23.8564 10.3401L23.8489 10.2901C23.4394 10.4192 23.0918 10.6946 22.8725 11.0638C22.6532 11.433 22.5776 11.87 22.6602 12.2914L22.6589 12.2801L23.5577 18.7676C23.6127 19.1839 23.8027 19.5489 24.0802 19.8239C24.3327 20.0751 24.6789 20.2326 25.0627 20.2364H25.0639C25.1489 20.2364 25.2327 20.2276 25.3127 20.2126L25.3039 20.2139C25.7301 20.1025 26.098 19.8332 26.3331 19.4607C26.5682 19.0882 26.653 18.6403 26.5702 18.2076L26.5714 18.2189L26.0814 14.6914C26.8591 15.5005 27.7925 16.144 28.8253 16.5831C29.8581 17.0222 30.9691 17.2478 32.0914 17.2464C32.1452 17.2464 32.1989 17.2464 32.2514 17.2389L32.3677 17.2326L31.5314 22.1101C31.5114 22.2283 31.4502 22.3357 31.3587 22.4132C31.2673 22.4908 31.1513 22.5335 31.0314 22.5339H12.4502L12.8589 24.4676H30.5552C30.9489 24.4832 31.3214 24.6506 31.5946 24.9346C31.8678 25.2186 32.0206 25.5973 32.0209 25.9914C32.0212 26.3855 31.8691 26.7644 31.5964 27.0489C31.3236 27.3334 30.9514 27.5013 30.5577 27.5176H29.1002V27.6314C29.1002 28.2616 28.8498 28.866 28.4042 29.3116C27.9585 29.7572 27.3541 30.0076 26.7239 30.0076C26.0937 30.0076 25.4893 29.7572 25.0436 29.3116C24.598 28.866 24.3477 28.2616 24.3477 27.6314V27.6239ZM26.0452 27.6239C26.0454 27.7171 26.065 27.8094 26.1028 27.8947C26.1406 27.98 26.1956 28.0565 26.2645 28.1194C26.3334 28.1824 26.4146 28.2303 26.503 28.2602C26.5913 28.2901 26.6849 28.3013 26.7779 28.2932C26.8708 28.285 26.961 28.2576 27.0428 28.2128C27.1246 28.1679 27.1962 28.1066 27.2531 28.0326C27.3099 27.9586 27.3508 27.8737 27.3731 27.7831C27.3954 27.6925 27.3987 27.5983 27.3827 27.5064V27.5101H26.0577C26.051 27.5476 26.0476 27.5857 26.0477 27.6239H26.0452ZM14.1352 27.6239C14.1354 27.7171 14.155 27.8094 14.1928 27.8947C14.2306 27.98 14.2856 28.0565 14.3545 28.1194C14.4234 28.1824 14.5046 28.2303 14.593 28.2602C14.6813 28.2901 14.7749 28.3013 14.8679 28.2932C14.9608 28.285 15.051 28.2576 15.1328 28.2128C15.2146 28.1679 15.2862 28.1066 15.3431 28.0326C15.3999 27.9586 15.4408 27.8737 15.4631 27.7831C15.4854 27.6925 15.4887 27.5983 15.4727 27.5064V27.5101H14.1464C14.1401 27.5468 14.1372 27.5841 14.1377 27.6214V27.6239H14.1352ZM18.9689 10.2801C18.5426 10.3912 18.1745 10.6604 17.9393 11.033C17.7041 11.4056 17.6195 11.8537 17.7027 12.2864L17.7014 12.2751L18.6002 18.7626C18.6552 19.1789 18.8452 19.5439 19.1227 19.8189C19.3752 20.0701 19.7214 20.2276 20.1052 20.2314H20.1064C20.1914 20.2314 20.2752 20.2226 20.3552 20.2076L20.3464 20.2089C20.7726 20.0975 21.1405 19.8282 21.3756 19.4557C21.6107 19.0832 21.6955 18.6353 21.6127 18.2026L21.6139 18.2139L20.7152 11.7264C20.6633 11.326 20.4795 10.9543 20.1927 10.6701C19.9316 10.4094 19.5791 10.2609 19.2102 10.2564H19.2089C19.1227 10.2564 19.0389 10.2651 18.9577 10.2814L18.9664 10.2801H18.9689ZM14.0114 10.2801C13.5836 10.3907 13.2142 10.6605 12.9787 11.0343C12.7431 11.4081 12.6591 11.8577 12.7439 12.2914L12.7427 12.2801L13.6414 18.7676C13.6964 19.1839 13.8864 19.5489 14.1639 19.8239C14.4164 20.0751 14.7627 20.2326 15.1464 20.2364H15.1477C15.2327 20.2364 15.3164 20.2276 15.3964 20.2126L15.3877 20.2139C15.8142 20.103 16.1826 19.8339 16.4181 19.4613C16.6535 19.0887 16.7382 18.6405 16.6552 18.2076L16.6564 18.2189L15.7564 11.7276C15.7046 11.3272 15.5207 10.9555 15.2339 10.6714C14.9732 10.4102 14.6204 10.2616 14.2514 10.2576H14.2502C14.1652 10.2576 14.0827 10.2664 14.0027 10.2814L14.0114 10.2801ZM24.9977 8.8701C24.998 6.98707 25.7463 5.18128 27.0781 3.85001C27.7375 3.19083 28.5203 2.66799 29.3818 2.31133C30.2432 1.95467 31.1665 1.77119 32.0989 1.77135C33.0313 1.77152 33.9545 1.95533 34.8159 2.31229C35.6772 2.66925 36.4598 3.19237 37.119 3.85178C37.7782 4.51119 38.301 5.29398 38.6577 6.15546C39.0143 7.01693 39.1978 7.94022 39.1977 8.8726C39.1972 10.756 38.4485 12.562 37.1164 13.8934C35.7843 15.2248 33.9779 15.9725 32.0945 15.972C30.2112 15.9715 28.4051 15.2228 27.0737 13.8907C25.7423 12.5586 24.9947 10.7522 24.9952 8.86885L24.9977 8.8701ZM27.0314 8.8701C27.0314 9.53541 27.1625 10.1942 27.4171 10.8089C27.6717 11.4235 28.0448 11.982 28.5153 12.4525C28.9857 12.9229 29.5442 13.2961 30.1589 13.5507C30.7736 13.8053 31.4323 13.9364 32.0977 13.9364C32.763 13.9364 33.4218 13.8053 34.0364 13.5507C34.6511 13.2961 35.2096 12.9229 35.68 12.4525C36.1505 11.982 36.5237 11.4235 36.7783 10.8089C37.0329 10.1942 37.1639 9.53541 37.1639 8.8701C37.1641 7.52612 36.6303 6.23711 35.6801 5.28666C34.7299 4.3362 33.441 3.80214 32.097 3.80198C30.753 3.80181 29.464 4.33555 28.5136 5.28577C27.5631 6.236 27.0291 7.52487 27.0289 8.86885L27.0314 8.8701ZM31.0814 10.8964V9.88635H30.0714C29.8016 9.88635 29.5427 9.77915 29.3519 9.58833C29.1611 9.39752 29.0539 9.13871 29.0539 8.86885C29.0539 8.59899 29.1611 8.34019 29.3519 8.14937C29.5427 7.95855 29.8016 7.85135 30.0714 7.85135H31.0814V6.84135C31.0814 6.57149 31.1886 6.31269 31.3794 6.12187C31.5702 5.93105 31.8291 5.82385 32.0989 5.82385C32.3688 5.82385 32.6276 5.93105 32.8184 6.12187C33.0092 6.31269 33.1164 6.57149 33.1164 6.84135V7.85135H34.1264C34.3963 7.85135 34.6551 7.95855 34.8459 8.14937C35.0367 8.34019 35.1439 8.59899 35.1439 8.86885C35.1439 9.13871 35.0367 9.39752 34.8459 9.58833C34.6551 9.77915 34.3963 9.88635 34.1264 9.88635H33.1164V10.8951C33.1164 11.165 33.0092 11.4238 32.8184 11.6146C32.6276 11.8054 32.3688 11.9126 32.0989 11.9126C31.8291 11.9126 31.5702 11.8054 31.3794 11.6146C31.1886 11.4238 31.0814 11.165 31.0814 10.8951V10.8964Z" fill="#E67EFB"/>
</svg>
