<svg width="31" height="30" viewBox="0 0 31 30" fill="none" xmlns="http://www.w3.org/2000/svg">
<path d="M24.8088 6.68133C24.5579 5.83082 24.0373 5.08493 23.3255 4.55619C22.6137 4.02744 21.7492 3.74451 20.8625 3.75008C19.8348 3.751 18.8447 4.13629 18.0867 4.83021C17.3287 5.52413 16.8577 6.4765 16.7662 7.50008H14.235C14.1423 6.47542 13.6697 5.52248 12.9101 4.82857C12.1505 4.13466 11.1588 3.74995 10.13 3.75008C9.24447 3.74573 8.38151 4.02926 7.67111 4.55794C6.96071 5.08663 6.44135 5.83184 6.19125 6.68133L3.0525 17.1413C3.01812 17.2578 3.00044 17.3786 3 17.5001V18.7501C3.00199 20.4073 3.66127 21.996 4.83322 23.1677C6.00516 24.3395 7.59404 24.9984 9.25125 25.0001C10.4659 24.998 11.6536 24.6423 12.6693 23.9763C13.6851 23.3104 14.485 22.3631 14.9712 21.2501H16.0288C16.515 22.3631 17.3149 23.3104 18.3307 23.9763C19.3464 24.6423 20.5341 24.998 21.7488 25.0001C23.4062 24.9984 24.9952 24.3393 26.1672 23.1673C27.3392 21.9953 27.9983 20.4063 28 18.7488V17.5001C28 17.3776 27.9813 17.2576 27.9475 17.1413L24.8088 6.68133V6.68133ZM9.25125 22.5001C8.25698 22.4988 7.30379 22.1033 6.60062 21.4003C5.89744 20.6974 5.50165 19.7444 5.5 18.7501C5.5 18.6551 5.52125 18.5663 5.5275 18.4726C5.59589 17.5311 6.01743 16.6502 6.7077 16.0063C7.39798 15.3623 8.30602 15.003 9.25 15.0001C10.2446 15.0001 11.1984 15.3952 11.9017 16.0984C12.6049 16.8017 13 17.7555 13 18.7501V18.7613C12.9957 19.7533 12.5991 20.7033 11.8967 21.4038C11.1943 22.1043 10.2432 22.4984 9.25125 22.5001V22.5001ZM21.7488 22.5001C20.7568 22.4984 19.8057 22.1043 19.1033 21.4038C18.4009 20.7033 18.0043 19.7533 18 18.7613V18.7501C17.9999 18.2576 18.0968 17.77 18.2852 17.315C18.4736 16.86 18.7497 16.4465 19.0979 16.0982C19.8011 15.3949 20.7548 14.9996 21.7494 14.9995C22.7439 14.9993 23.6978 15.3942 24.4012 16.0974C25.1046 16.8005 25.4998 17.7543 25.5 18.7488C25.4987 19.7433 25.103 20.6967 24.3998 21.3999C23.6966 22.1031 22.7432 22.4988 21.7488 22.5001V22.5001Z" fill="#E67EFB"/>
</svg>
