<svg width="31" height="30" viewBox="0 0 31 30" fill="none" xmlns="http://www.w3.org/2000/svg">
<path d="M7.11501 7.49984C5.26671 9.56032 4.24619 12.2318 4.25001 14.9998C4.25001 15.8586 4.34626 16.6961 4.52876 17.4998L7.11501 7.49984ZM7.11501 7.49984C8.49148 5.96214 10.2643 4.83256 12.2396 4.23463C14.2148 3.6367 16.3165 3.59345 18.3147 4.10961C20.3129 4.62577 22.1306 5.68147 23.5692 7.16124C25.0078 8.64101 26.0117 10.4879 26.4713 12.4998L7.11501 7.49984ZM7.11501 7.49984H15.5H7.11501ZM26.4713 12.4998C27.0264 14.9318 26.7574 17.4793 25.7067 19.7417C24.6561 22.0042 22.8832 23.8533 20.667 24.9982C18.4508 26.1432 15.9169 26.5191 13.4637 26.0668C11.0105 25.6146 8.77726 24.3598 7.11501 22.4998L26.4713 12.4998ZM26.4713 12.4998H19.25H26.4713ZM4.52876 17.4998H16.75H4.52876ZM4.52876 17.4998C4.95189 19.3592 5.842 21.0801 7.11501 22.4998L4.52876 17.4998ZM7.11501 22.4998H14.25H7.11501ZM15.5 12.4998H13H15.5Z" stroke="#E67EFB" stroke-width="2.5" stroke-linecap="round" stroke-linejoin="round"/>
</svg>
