<svg width="31" height="30" viewBox="0 0 31 30" fill="none" xmlns="http://www.w3.org/2000/svg">
<path d="M27.3654 6.18477L21.5295 6.8879C21.3362 6.91133 21.2541 7.14864 21.3918 7.28633L23.1291 9.02364L16.508 15.6447L13.5256 12.6652C13.341 12.4807 13.0451 12.4836 12.8635 12.6652L3.43869 22.093C3.39507 22.137 3.37061 22.1965 3.37061 22.2585C3.37061 22.3205 3.39507 22.38 3.43869 22.424L4.75705 23.7482C4.84787 23.8391 4.99729 23.8391 5.08811 23.7482L13.1945 15.6447L16.174 18.6242C16.3586 18.8059 16.6545 18.8059 16.8362 18.6242L24.7873 10.6789L26.5246 12.4162C26.5558 12.4472 26.595 12.4688 26.6378 12.4786C26.6806 12.4884 26.7253 12.486 26.7668 12.4717C26.8083 12.4573 26.845 12.4316 26.8726 12.3975C26.9002 12.3633 26.9177 12.3221 26.9231 12.2785L27.6262 6.44258C27.6467 6.29317 27.5178 6.16426 27.3654 6.18477V6.18477Z" fill="#E67EFB"/>
</svg>
