<svg width="40" height="30" viewBox="0 0 40 30" fill="none" xmlns="http://www.w3.org/2000/svg">
<g clip-path="url(#clip0_220_293)">
<path d="M25.0987 27.6239V27.5101H17.9374V27.6239C17.9374 28.2541 17.6871 28.8585 17.2415 29.3041C16.7958 29.7497 16.1914 30.0001 15.5612 30.0001C14.931 30.0001 14.3266 29.7497 13.8809 29.3041C13.4353 28.8585 13.1849 28.2541 13.1849 27.6239V27.5101H12.3712C12.0231 27.5099 11.6855 27.3909 11.4143 27.1726C11.1431 26.9544 10.9546 26.6501 10.8799 26.3101L10.8787 26.3001L6.10744 3.70885L2.03119 3.0301C1.64297 2.95168 1.30044 2.72542 1.07596 2.39912C0.851476 2.07282 0.76263 1.67203 0.828189 1.28143C0.893749 0.890831 1.10858 0.541014 1.42729 0.305883C1.74601 0.070752 2.14364 -0.0312765 2.53619 0.0213527L2.52869 0.0201027L7.62994 0.870103C8.25119 0.976353 8.73869 1.44635 8.86869 2.04885L8.86994 2.05885L9.73494 6.13885L24.6149 7.37885C24.5274 7.82385 24.4774 8.33635 24.4749 8.86135V8.86385C24.4749 9.3401 24.5149 9.80635 24.5899 10.2614L24.5837 10.2126C24.2212 10.3526 23.9299 10.6126 23.7549 10.9439L23.7512 10.9526C23.5506 11.3207 23.4759 11.7444 23.5387 12.1589L23.5374 12.1489L24.4362 18.6364C24.4912 19.0526 24.6812 19.4176 24.9587 19.6926C25.2112 19.9439 25.5587 20.1001 25.9412 20.1051H25.9424C26.0274 20.1051 26.1112 20.0964 26.1912 20.0814L26.1824 20.0826C26.6086 19.9712 26.9766 19.702 27.2117 19.3295C27.4468 18.957 27.5315 18.509 27.4487 18.0764L27.4499 18.0876L26.9999 14.8476C28.5552 16.3856 30.6551 17.2469 32.8424 17.2439H32.8449C32.8987 17.2439 32.9524 17.2439 33.0049 17.2364H33.1199L32.2837 22.1139C32.2634 22.2319 32.2021 22.3389 32.1107 22.4162C32.0192 22.4935 31.9034 22.536 31.7837 22.5364H13.1974L13.6062 24.4701H31.3024L31.3474 24.4689C31.7522 24.4689 32.1404 24.6297 32.4267 24.9159C32.7129 25.2021 32.8737 25.5903 32.8737 25.9951C32.8737 26.3999 32.7129 26.7881 32.4267 27.0743C32.1404 27.3606 31.7522 27.5214 31.3474 27.5214L31.2999 27.5201H31.3024H29.8474V27.6339C29.8476 27.9459 29.7863 28.2549 29.667 28.5433C29.5478 28.8317 29.3729 29.0937 29.1523 29.3145C28.9318 29.5353 28.6699 29.7104 28.3817 29.83C28.0935 29.9496 27.7845 30.0112 27.4724 30.0114C27.1604 30.0115 26.8514 29.9502 26.563 29.8309C26.2746 29.7117 26.0126 29.5368 25.7918 29.3162C25.571 29.0957 25.3959 28.8338 25.2763 28.5456C25.1567 28.2574 25.0951 27.9484 25.0949 27.6364V27.6339L25.0987 27.6239ZM26.7962 27.6239C26.7955 27.7179 26.8144 27.8111 26.8518 27.8974C26.8892 27.9836 26.9442 28.0612 27.0133 28.125C27.0824 28.1888 27.1641 28.2374 27.2531 28.2678C27.3421 28.2982 27.4365 28.3096 27.5302 28.3014C27.6239 28.2932 27.7148 28.2655 27.7972 28.22C27.8795 28.1746 27.9515 28.1125 28.0084 28.0376C28.0654 27.9628 28.106 27.8768 28.1278 27.7854C28.1496 27.6939 28.152 27.5988 28.1349 27.5064V27.5101H26.8062C26.7999 27.5468 26.797 27.5841 26.7974 27.6214V27.6239H26.7962ZM14.8862 27.6239C14.8865 27.7171 14.9061 27.8094 14.9438 27.8947C14.9816 27.98 15.0367 28.0565 15.1055 28.1194C15.1744 28.1824 15.2556 28.2303 15.344 28.2602C15.4324 28.2901 15.526 28.3013 15.6189 28.2932C15.7118 28.285 15.8021 28.2576 15.8839 28.2128C15.9657 28.1679 16.0373 28.1066 16.0941 28.0326C16.151 27.9586 16.1918 27.8737 16.2142 27.7831C16.2365 27.6925 16.2397 27.5983 16.2237 27.5064V27.5101H14.8962C14.8899 27.5468 14.887 27.5841 14.8874 27.6214V27.6239H14.8862ZM19.8512 10.1589C19.425 10.2689 19.0567 10.5369 18.8208 10.9086C18.585 11.2802 18.4993 11.7276 18.5812 12.1601L18.5799 12.1489L19.4787 18.6364C19.5337 19.0526 19.7237 19.4176 20.0012 19.6926C20.2537 19.9439 20.5999 20.1014 20.9837 20.1051H20.9849C21.0699 20.1051 21.1537 20.0964 21.2337 20.0814L21.2249 20.0826C21.6515 19.9717 22.0199 19.7027 22.2553 19.3301C22.4907 18.9574 22.5755 18.5092 22.4924 18.0764L22.4937 18.0876L21.5949 11.6001C21.5431 11.1997 21.3592 10.828 21.0724 10.5439C20.9125 10.3862 20.7172 10.2689 20.5029 10.202C20.2885 10.135 20.0612 10.1202 19.8399 10.1589L19.8487 10.1576L19.8512 10.1589ZM14.8924 10.1589C14.4667 10.2694 14.099 10.5377 13.8636 10.9093C13.6283 11.2808 13.543 11.728 13.6249 12.1601L13.6237 12.1489L14.5224 18.6364C14.5774 19.0526 14.7674 19.4176 15.0449 19.6926C15.2974 19.9439 15.6449 20.1001 16.0274 20.1051H16.0287C16.1137 20.1051 16.1974 20.0964 16.2774 20.0814L16.2687 20.0826C16.6949 19.9712 17.0628 19.702 17.2979 19.3295C17.533 18.957 17.6178 18.509 17.5349 18.0764L17.5362 18.0876L16.6362 11.6064C16.5844 11.206 16.4005 10.8343 16.1137 10.5501C15.853 10.2889 15.5002 10.1404 15.1312 10.1364H15.1274C15.0453 10.1362 14.9632 10.1437 14.8824 10.1589L14.8912 10.1576L14.8924 10.1589ZM25.7474 8.86885C25.7474 6.98582 26.4955 5.1799 27.827 3.84839C29.1585 2.51689 30.9644 1.76885 32.8474 1.76885C34.7305 1.76885 36.5364 2.51689 37.8679 3.84839C39.1994 5.1799 39.9474 6.98582 39.9474 8.86885C39.9474 10.7522 39.1993 12.5585 37.8675 13.8902C36.5358 15.2219 34.7296 15.9701 32.8462 15.9701C30.9628 15.9701 29.1566 15.2219 27.8249 13.8902C26.4931 12.5585 25.7449 10.7522 25.7449 8.86885H25.7474ZM27.7812 8.86885C27.7812 10.2128 28.3151 11.5018 29.2654 12.4521C30.2158 13.4025 31.5047 13.9364 32.8487 13.9364C34.1927 13.9364 35.4816 13.4025 36.432 12.4521C37.3823 11.5018 37.9162 10.2128 37.9162 8.86885C37.9162 7.52454 37.3822 6.23528 36.4316 5.28471C35.481 4.33413 34.1918 3.8001 32.8474 3.8001C31.5031 3.8001 30.2139 4.33413 29.2633 5.28471C28.3127 6.23528 27.7787 7.52454 27.7787 8.86885H27.7812ZM30.8187 9.8851C30.5488 9.8851 30.29 9.7779 30.0992 9.58708C29.9084 9.39627 29.8012 9.13746 29.8012 8.8676C29.8012 8.59774 29.9084 8.33894 30.0992 8.14812C30.29 7.9573 30.5488 7.8501 30.8187 7.8501H34.8687C35.1386 7.8501 35.3974 7.9573 35.5882 8.14812C35.779 8.33894 35.8862 8.59774 35.8862 8.8676C35.8862 9.13746 35.779 9.39627 35.5882 9.58708C35.3974 9.7779 35.1386 9.8851 34.8687 9.8851H30.8187Z" fill="#E67EFB"/>
</g>
<defs>
<clipPath id="clip0_220_293">
<rect width="38.75" height="30" fill="white" transform="translate(0.75)"/>
</clipPath>
</defs>
</svg>
